# xmcd
#
# Track frame offsets:
#	150
#	15556
#	34027
#	52802
#	70345
#	86787
#
# Disc length: 1421 seconds
# Revision: 0
# Processed by: cddbd v1.5.2PL0 Copyright (c) Steve Scherf et al.
# Submitted via: dBpowerAMP V12.0
#
DISCID=43058b06
DTITLE=Betsy Lane - Southern Crazy EP
DYEAR=2014
DGENRE=Country
TTITLE0=This Time
TTITLE1=Grenade
TTITLE2=Southern Crazy
TTITLE3=Drunk Because Of You
TTITLE4=Fell Through
TTITLE5=What About 18
EXTD=
EXTT0=
EXTT1=
EXTT2=
EXTT3=
EXTT4=
EXTT5=
PLAYORDER=
